<?xml version="1.0" standalone="no"?>
<!DOCTYPE svg PUBLIC "-//W3C//DTD SVG 20010904//EN"
 "http://www.w3.org/TR/2001/REC-SVG-20010904/DTD/svg10.dtd">
<svg version="1.0" xmlns="http://www.w3.org/2000/svg"
 width="298.000000pt" height="298.000000pt" viewBox="0 0 298.000000 298.000000"
 preserveAspectRatio="xMidYMid meet">

<g transform="translate(0.000000,298.000000) scale(0.100000,-0.100000)"
fill="#000000" stroke="none">
<path d="M150 2232 c0 -497 4 -768 11 -807 31 -168 158 -302 326 -345 73 -19
116 -20 933 -20 532 0 878 4 911 10 126 24 258 120 314 230 54 106 55 122 55
933 l0 747 -25 0 -25 0 0 -749 c0 -706 -1 -753 -19 -810 -25 -82 -60 -138
-119 -193 -94 -88 -195 -122 -347 -116 l-90 3 -3 410 -3 410 -312 192 c-172
106 -320 195 -330 198 -10 5 -51 -17 -119 -63 -57 -38 -198 -127 -315 -198
l-212 -129 -3 -410 -3 -410 -90 -3 c-110 -4 -181 10 -260 52 -79 41 -138 104
-183 195 l-37 75 -3 773 -2 773 -25 0 -25 0 0 -748z m1264 -409 c4 -24 3 -49
-3 -85 0 -5 -26 -8 -56 -8 l-55 0 0 60 0 60 54 0 c51 0 55 -2 60 -27z m134
-30 l-3 -58 -55 0 -55 0 -3 44 c-5 66 0 71 63 71 l56 0 -3 -57z m-135 -93 c5
-4 7 -27 5 -51 l-3 -44 -57 -3 -58 -3 0 55 c0 52 1 55 28 59 31 4 73 -2 85
-13z m120 11 c14 -1 17 -11 17 -56 l0 -56 -57 3 -58 3 -3 49 c-4 63 -4 63 101
57z"/>
<path d="M1446 2922 c-19 -68 -21 -154 -5 -220 7 -26 14 -49 16 -51 2 -3 50
42 107 98 l104 104 91 -23 c50 -12 94 -27 97 -32 4 -6 17 -49 30 -96 l24 -87
-107 -107 -106 -106 39 -10 c115 -29 211 -20 309 28 158 79 243 227 232 408
-4 86 -4 87 26 120 l31 32 -436 0 -435 0 -17 -58z"/>
<path d="M400 525 l0 -215 30 0 30 0 0 90 0 90 34 0 c79 0 126 41 129 113 4
96 -43 137 -157 137 l-66 0 0 -215z m144 133 c34 -49 6 -111 -47 -106 -32 3
-32 3 -35 66 l-3 62 35 0 c25 0 39 -6 50 -22z"/>
<path d="M682 528 l3 -213 30 0 30 0 3 88 c3 84 4 88 24 85 17 -2 26 -19 47
-88 26 -82 28 -85 59 -88 17 -2 32 1 32 6 0 5 -11 45 -25 88 -30 95 -30 92 -3
121 31 33 36 117 9 161 -27 41 -55 52 -142 52 l-69 0 2 -212z m146 140 c7 -7
12 -31 12 -55 0 -46 -17 -63 -64 -63 -25 0 -26 2 -26 65 l0 65 33 0 c18 0 38
-5 45 -12z"/>
<path d="M1035 728 c-11 -32 -85 -375 -85 -395 0 -19 6 -23 29 -23 25 0 30 5
35 36 l7 35 51 -3 c49 -3 52 -5 60 -35 7 -28 13 -33 38 -33 20 0 30 5 30 15 0
15 -75 362 -86 398 -6 20 -72 24 -79 5z m54 -158 c6 -27 14 -68 17 -90 l7 -40
-36 0 c-20 0 -38 3 -40 8 -6 11 25 172 34 172 4 0 12 -22 18 -50z"/>
<path d="M1234 725 c-12 -30 4 -45 45 -45 l41 0 2 -182 3 -183 30 0 30 0 3
183 2 182 40 0 c43 0 54 10 45 40 -6 18 -15 20 -121 20 -93 0 -116 -3 -120
-15z"/>
<path d="M1549 711 c-23 -24 -29 -38 -29 -75 0 -52 31 -95 106 -147 47 -32 62
-65 44 -98 -15 -30 -66 -29 -76 2 -5 12 -8 27 -9 32 0 6 -15 11 -32 13 -29 3
-33 0 -33 -22 0 -62 48 -106 118 -106 32 0 47 7 71 31 26 26 31 38 31 79 0 53
-12 70 -102 142 -71 58 -74 123 -4 116 26 -2 32 -8 36 -33 4 -25 10 -30 38
-33 28 -3 32 0 32 22 0 65 -46 106 -120 106 -33 0 -48 -6 -71 -29z"/>
<path d="M1802 528 l3 -213 103 -3 102 -3 0 31 0 30 -70 0 -70 0 0 64 0 65 43
3 c37 3 42 6 42 28 0 22 -5 25 -42 28 l-43 3 0 60 0 59 70 0 70 0 0 30 0 30
-105 0 -105 0 2 -212z"/>
<path d="M2072 528 l3 -213 30 0 30 0 3 88 c3 84 4 88 24 85 18 -2 27 -18 48
-88 25 -82 27 -85 58 -88 39 -4 39 1 7 93 -30 85 -31 93 -4 122 14 14 23 40
26 70 10 101 -36 143 -155 143 l-72 0 2 -212z m146 140 c15 -15 16 -72 2 -99
-8 -13 -21 -19 -45 -19 l-35 0 0 65 0 65 33 0 c18 0 38 -5 45 -12z"/>
<path d="M2340 737 c0 -17 83 -387 90 -405 8 -19 17 -23 42 -20 l31 3 43 205
c24 113 44 208 44 213 0 4 -15 7 -34 7 l-33 0 -17 -107 c-18 -113 -35 -187
-41 -182 -2 2 -13 58 -24 124 -31 177 -26 165 -66 165 -19 0 -35 -2 -35 -3z"/>
</g>
</svg>
